# xmcd CD database file
#
# Track frame offsets:
#	150
#	19408
#	35586
#	54499
#	70822
#	87701
#
# Disc length: 1417 seconds
#
# Revision: 1
# Processed by: cddbd v1.5.1PL0 Copyright (c) Steve Scherf et al.
# Submitted via: CDex 1.51
#
DISCID=51058706
DTITLE=Sullivan - Demo
DYEAR=2003
DGENRE=Country
TTITLE0=Out on a Limb
TTITLE1=Jemison
TTITLE2=Not Ashamed
TTITLE3=Ooh La La
TTITLE4=Cowboy
TTITLE5=Black Hair
EXTD=YEAR: 2003
EXTT0=
EXTT1=
EXTT2=
EXTT3=
EXTT4=
EXTT5=
PLAYORDER=
